<svg viewBox="0 0 32 32" xml:space="preserve" xmlns="http://www.w3.org/2000/svg"><path d="M25.871 6H6.13A4.133 4.133 0 0 0 2 10.129V21.87A4.133 4.133 0 0 0 6.129 26H25.87A4.133 4.133 0 0 0 30 21.871V10.13A4.133 4.133 0 0 0 25.871 6zM6.13 8H25.87C27.045 8 28 8.955 28 10.129v.135l-12 4.663-12-4.663v-.135C4 8.955 4.955 8 6.129 8zM25.87 24H6.13A2.131 2.131 0 0 1 4 21.871V12.41l11.638 4.523a.998.998 0 0 0 .724 0L28 12.41v9.462A2.131 2.131 0 0 1 25.871 24z" fill="#ecedee" class="fill-000000"></path></svg>